<svg xmlns="http://www.w3.org/2000/svg" fill="none" viewBox="0 0 36 31">
  <path fill="#00B2FF" d="M18 9.76a.7.7 0 00-.7.7c0 .4.31.71.7.71a.7.7 0 00.7-.7.7.7 0 00-.7-.71z"/>
  <path fill="#00B2FF" d="M33.9 14h-2.75C29.71 9.87 27.62 2.6 23.83.54c-1.9-1.03-3.69-.31-4.36 1.15a1.6 1.6 0 01-1.47.94 1.6 1.6 0 01-1.47-.94c-.65-1.41-2.4-2.2-4.23-1.3-3.85 1.88-6 9.45-7.45 13.63H2.1a2.12 2.12 0 000 4.25h31.78c1.17 0 2.11-.96 2.11-2.13s-.95-2.12-2.1-2.12zM7.31 11.18h7.87a.7.7 0 00.7-.7.7.7 0 00-.7-.71H7.8c2.12-5.9 4.1-7.61 5.1-8.1 1.11-.55 2.02-.1 2.35.62A3 3 0 0018 4.04a3 3 0 002.74-1.76c.34-.73 1.25-1.14 2.42-.5 1.02.55 3 2.32 5.03 7.98h-7.38a.7.7 0 00-.7.7c0 .4.31.71.7.71h7.88l.97 2.84H6.34l.98-2.84zm26.57 5.67H2.11a.7.7 0 01-.7-.7c0-.4.31-.72.7-.72h31.78c.39 0 .7.32.7.71 0 .4-.31.7-.7.7zM16.6 21.09H5.33a.7.7 0 00-.7.7v2.84a6.32 6.32 0 0012.24 2.27c.71-.33 1.53-.33 2.24 0a6.32 6.32 0 0012.24-2.27V21.8a.7.7 0 00-.7-.71H19.4a.7.7 0 00-.7.7v.71H17.3v-.7a.7.7 0 00-.7-.71zm-5.63 8.5a4.94 4.94 0 01-4.92-4.96V22.5h9.84v2.13c0 2.74-2.2 4.95-4.92 4.95zm9.14-7.09h9.84v2.13a4.93 4.93 0 11-9.84 0V22.5zm-1.4 1.42v.7c0 .23 0 .46.03.68a4.09 4.09 0 00-1.48 0c.02-.22.04-.45.04-.67v-.71h1.4z"/>
  <path fill="#00B2FF" d="M10.97 26.75c-1.16 0-2.11-.95-2.11-2.12a.7.7 0 00-.7-.71.7.7 0 00-.7.7 3.53 3.53 0 003.5 3.55.7.7 0 00.71-.71.7.7 0 00-.7-.7zM25.03 28.17a3.53 3.53 0 003.52-3.54.7.7 0 00-.7-.71.7.7 0 00-.7.7c0 1.18-.96 2.13-2.12 2.13a.7.7 0 00-.7.71c0 .39.31.7.7.7z"/>
</svg>
