<svg xmlns="http://www.w3.org/2000/svg" fill="none" viewBox="0 0 19 14">
  <path fill="#00B2FF" d="M16.68 0H2.32C1.04 0 0 1 0 2.25v9.5A2.29 2.29 0 002.32 14h14.36c1.28 0 2.32-1 2.32-2.25v-9.5A2.29 2.29 0 0016.68 0zm1.26 11.75c0 .67-.56 1.22-1.26 1.22H2.32c-.7 0-1.26-.55-1.26-1.22v-9.5c0-.67.57-1.22 1.26-1.22h14.36c.7 0 1.26.55 1.26 1.22v9.5z"/>
  <path fill="#00B2FF" d="M11.98 6.88l4.65-4.03a.5.5 0 00.04-.73.55.55 0 00-.75-.04L9.5 7.65 8.26 6.57v-.01a.78.78 0 00-.1-.07L3.09 2.08a.54.54 0 00-.75.04.5.5 0 00.04.73l4.7 4.07-4.68 4.24a.5.5 0 00-.02.73c.1.1.24.16.39.16.13 0 .26-.04.36-.14l4.75-4.3 1.29 1.11a.54.54 0 00.7 0l1.33-1.15 4.73 4.35c.1.1.23.14.36.14.15 0 .28-.05.39-.16a.5.5 0 00-.02-.73l-4.67-4.29z"/>
</svg>
