<svg xmlns="http://www.w3.org/2000/svg" fill="none" viewBox="0 0 18 18">
  <path fill="#00B2FF" d="M14.23 11.15a1.77 1.77 0 00-1.28-.59c-.47 0-.92.2-1.3.59l-1.2 1.2-.3-.16a4.83 4.83 0 01-.38-.2 13.06 13.06 0 01-3.13-2.85 7.7 7.7 0 01-1.02-1.62l.88-.86.32-.33c.8-.8.8-1.83 0-2.63L5.78 2.67l-.35-.36c-.23-.24-.47-.48-.72-.71a1.8 1.8 0 00-1.27-.56c-.47 0-.92.2-1.3.56L.83 2.92a2.78 2.78 0 00-.82 1.77c-.1 1.1.23 2.14.48 2.82.62 1.66 1.54 3.2 2.91 4.84A17.9 17.9 0 009.37 17a9.3 9.3 0 003.6 1c.87 0 1.6-.32 2.19-.94l.01-.02c.2-.24.43-.46.67-.69l.5-.49c.37-.39.57-.85.57-1.31 0-.47-.2-.93-.59-1.3l-2.09-2.1zm1.37 4l-.47.46c-.25.24-.5.49-.73.76-.39.41-.84.6-1.43.6h-.18a8.26 8.26 0 01-2.97-.88 16.9 16.9 0 01-5.61-4.4c-1.3-1.56-2.17-3-2.74-4.55a5.42 5.42 0 01-.43-2.38c.04-.44.21-.81.53-1.13l1.3-1.3a.87.87 0 01.57-.26c.24 0 .44.14.56.26l.01.01.69.68c.11.13.23.25.36.37L6.1 4.43c.4.4.4.77 0 1.18l-.33.32c-.32.33-.63.63-.96.93l-.02.02c-.32.33-.26.65-.2.86l.02.04c.27.65.65 1.27 1.23 2 1.05 1.3 2.16 2.3 3.38 3.07.15.1.31.18.47.26l.37.2.05.02c.13.07.25.1.38.1.31 0 .5-.2.57-.26l1.3-1.3c.13-.13.34-.29.58-.29.24 0 .43.15.55.28l2.1 2.1c.4.39.4.79 0 1.2zM9.73 4.28a4.84 4.84 0 013.99 3.98c.04.25.25.43.5.43h.09a.51.51 0 00.42-.6 5.86 5.86 0 00-4.82-4.82.52.52 0 00-.6.42.5.5 0 00.42.6z"/>
  <path fill="#00B2FF" d="M18 7.94a9.64 9.64 0 00-2.72-5.22A9.66 9.66 0 0010.05 0a.51.51 0 10-.17 1 8.65 8.65 0 017.1 7.1c.04.25.26.42.5.42h.1a.5.5 0 00.41-.59z"/>
</svg>
