<svg xmlns="http://www.w3.org/2000/svg" fill="none" viewBox="0 0 29 35">
  <path fill="#fff" d="M3.19 11.66L1.7 10.2c-.8-.8-.8-2.1 0-2.9.8-.8 2.12-.8 2.93 0l1.59 1.57a14.58 14.58 0 015.52-2.3V4.5h-1.38a.69.69 0 01-.7-.68V2.05C9.67.92 10.6 0 11.75 0h5.52c1.14 0 2.07.92 2.07 2.05v1.78c0 .38-.3.68-.69.68h-1.38v2.04c1.98.38 3.87 1.17 5.52 2.31l1.59-1.57c.8-.8 2.12-.8 2.93 0 .8.8.8 2.1 0 2.9l-1.49 1.47A14.25 14.25 0 0129 20.64C29 28.56 22.5 35 14.5 35S0 28.56 0 20.64c0-3.27 1.13-6.44 3.19-8.98zm.46-3.4a.7.7 0 00-.97 0 .68.68 0 000 .96l1.43 1.42c.32-.33.65-.64 1-.94L3.65 8.26zm14.3-6.2a.69.69 0 00-.69-.7h-5.52c-.38 0-.7.31-.7.7v1.08h6.91V2.05zM13.12 4.5v1.84a15 15 0 012.76 0V4.51h-2.76zm13.2 3.75a.7.7 0 00-.97 0L23.89 9.7c.35.3.68.6 1 .94l1.43-1.42a.68.68 0 000-.96zM14.5 33.63c7.23 0 13.12-5.82 13.12-12.99a12.9 12.9 0 00-5.18-10.34 13.18 13.18 0 00-17.8 1.77 12.9 12.9 0 00-3.26 8.57c0 7.17 5.89 13 13.12 13z"/>
  <path fill="#fff" d="M14.5 22.7a2.06 2.06 0 01-2.07-2.06c0-.89.58-1.65 1.38-1.93v-4.9c0-.38.3-.69.69-.69.38 0 .7.31.7.69v4.9c.8.28 1.37 1.04 1.37 1.93 0 1.14-.93 2.06-2.07 2.06zm0-2.74c-.38 0-.69.3-.69.68 0 .38.3.69.69.69.38 0 .7-.3.7-.69a.69.69 0 00-.7-.68z"/>
  <path fill="#fff" d="M7.14 13.43a.54.54 0 01.04-.03l.04-.04a10.42 10.42 0 014.35-2.55c.37-.1.75.1.86.46.1.36-.1.74-.47.85-1.2.35-2.33.96-3.3 1.78l.47.46c.27.27.27.7 0 .97a.7.7 0 01-.98 0l-.46-.46a8.76 8.76 0 00-2.14 5.1h.66c.39 0 .7.3.7.67 0 .38-.31.69-.7.69h-.66a8.76 8.76 0 002.14 5.1l.46-.47a.7.7 0 01.98 0c.27.27.27.7 0 .97l-.47.46a8.94 8.94 0 005.15 2.12v-.66c0-.38.3-.69.69-.69.38 0 .7.31.7.69v.65c1.9-.14 3.68-.87 5.14-2.11l-.47-.46a.68.68 0 010-.97.7.7 0 01.98 0l.46.46c1.25-1.43 2-3.2 2.14-5.1h-.66a.69.69 0 01-.7-.68c0-.37.31-.68.7-.68h.66a8.76 8.76 0 00-2.14-5.1l-.46.47a.7.7 0 01-.98 0 .68.68 0 010-.97l.47-.46a9.02 9.02 0 00-3.3-1.78.68.68 0 11.39-1.31 10.41 10.41 0 014.4 2.59l.03.03a10.13 10.13 0 01-.04 14.46l-.03.04a10.34 10.34 0 01-7.29 2.97c-2.75 0-5.33-1.06-7.28-2.97l-.04-.04-.03-.03a10.13 10.13 0 010-14.43z"/>
  <path fill="#fff" d="M14.5 11.76c-.38 0-.7-.3-.7-.69 0-.37.32-.68.7-.68.38 0 .69.3.69.68 0 .38-.3.69-.69.69z"/>
</svg>
