<svg xmlns="http://www.w3.org/2000/svg" fill="none" viewBox="0 0 35 35">
  <path fill="#00B2FF" d="M11.07 8.58a.69.69 0 00-.97 0 .69.69 0 000 .97.69.69 0 00.97 0 .69.69 0 000-.97z"/>
  <path fill="#00B2FF" d="M34.8 2.86L33.95 2l.85-.84a.68.68 0 00-.97-.97l-.84.84-.83-.83a.68.68 0 00-.49-.2H20.1a3.4 3.4 0 00-2.42 1l-5.77 5.77a.68.68 0 00.96.97l5.78-5.78c.39-.39.9-.6 1.45-.6H31.4l.63.64-2.53 2.54a2.8 2.8 0 10.96.97L33 2.98l.64.64V14.9c0 .55-.22 1.06-.6 1.45L16.33 33.03a2.04 2.04 0 01-2.9 0L1.97 21.56a2.04 2.04 0 010-2.9l7.37-7.37a.68.68 0 00-.97-.97L1 17.69a3.4 3.4 0 000 4.84L12.47 34a3.41 3.41 0 004.84 0L34 17.32c.65-.65 1-1.5 1-2.42L35 3.34a.68.68 0 00-.2-.48zm-5.74 5.1a1.42 1.42 0 01-2.03 0 1.43 1.43 0 011.43-2.38l-.8.79a.68.68 0 00.97.96l.8-.78c.13.48.01 1.03-.37 1.41z"/>
  <path fill="#00B2FF" d="M29.2 13.76L21.23 5.8a2.71 2.71 0 00-3.82 0L4.8 18.4a2.69 2.69 0 000 3.83l7.97 7.97a2.69 2.69 0 003.82 0L29.2 17.6a2.69 2.69 0 000-3.84zm-.97 2.87l-12.6 12.6a1.33 1.33 0 01-1.9 0l-7.96-7.96a1.33 1.33 0 010-1.9l12.6-12.6a1.34 1.34 0 011.9 0l7.96 7.96a1.33 1.33 0 010 1.9z"/>
  <path fill="#00B2FF" d="M22.29 13.68a.68.68 0 00-.97-.97l-.39.4a2.63 2.63 0 00-3.25.28c-.5.5-.75 1.18-.72 1.9a2.88 2.88 0 00.85 1.9c.55.55.62 1.38.14 1.85-.47.48-1.3.42-1.86-.13-.55-.55-.6-1.39-.13-1.86a.68.68 0 00-.97-.97c-.85.85-.94 2.2-.29 3.25l-.47.47a.68.68 0 00.97.97l.47-.47c.46.29.97.43 1.48.43.65 0 1.29-.24 1.77-.72 1-1 .94-2.7-.14-3.79a1.51 1.51 0 01-.45-1c-.02-.33.1-.64.31-.86.48-.47 1.31-.41 1.86.14s.61 1.38.14 1.86a.68.68 0 00.97.96c.85-.85.94-2.2.29-3.25l.39-.4zM15.37 25.01l-3.5-3.51a.68.68 0 00-.98.97l3.52 3.5a.68.68 0 00.96 0 .68.68 0 000-.96zM9.99 19.63a.69.69 0 00-.97 0 .69.69 0 000 .96.69.69 0 00.97 0 .69.69 0 000-.96z"/>
</svg>
